# xmcd
#
# Track frame offsets: 
#        150
#        16144
#        35909
#        52299
#        65254
#        80572
#        93790
#        115347
#        136411
#        145724
#
# Disc length: 2197 seconds
#
# Revision: 0
# Processed by: cddbd v1.5.2PL0 Copyright (c) Steve Scherf et al.
# Submitted via: ExactAudioCopyFreeDBPlugin 1.0
#
DISCID=8808930a
DTITLE=Kenna and Cox - One night in Paris
DYEAR=2012
DGENRE=Rock
TTITLE0=Unknown Artist - Big Old House
TTITLE1=Unknown Artist - Somebody's watching you
TTITLE2=Unknown Artist - Gone too long
TTITLE3=Unknown Artist - The cow boy
TTITLE4=Unknown Artist - Big black cloud 
TTITLE5=Unknown Artist - I told the judge the truth
TTITLE6=Unknown Artist - Far away
TTITLE7=Unknown Artist - How did we end up here
TTITLE8=Unknown Artist - The caravan
TTITLE9=Unknown Artist - Sail away 
EXTD=
EXTT0=
EXTT1=
EXTT2=
EXTT3=
EXTT4=
EXTT5=
EXTT6=
EXTT7=
EXTT8=
EXTT9=
PLAYORDER=
